<svg xmlns="http://www.w3.org/2000/svg" width="20.295" height="20.295" viewBox="0 0 20.295 20.295">
  <g id="Icon_ionic-ios-close-circle-outline" data-name="Icon ionic-ios-close-circle-outline" transform="translate(0 0)">
    <path id="Path_343" data-name="Path 343" d="M19.947,18.843l-2.571-2.571L19.947,13.7a.78.78,0,0,0-1.1-1.1l-2.571,2.571L13.7,12.6a.78.78,0,1,0-1.1,1.1l2.571,2.571L12.6,18.843a.754.754,0,0,0,0,1.1.774.774,0,0,0,1.1,0l2.571-2.571,2.571,2.571a.783.783,0,0,0,1.1,0A.774.774,0,0,0,19.947,18.843Z" transform="translate(-6.126 -6.124)" fill="#f33"/>
    <path id="Path_344" data-name="Path 344" d="M13.523,4.741a8.778,8.778,0,1,1-6.21,2.571,8.723,8.723,0,0,1,6.21-2.571m0-1.366A10.148,10.148,0,1,0,23.67,13.523,10.146,10.146,0,0,0,13.523,3.375Z" transform="translate(-3.375 -3.375)" fill="#f33"/>
  </g>
</svg>
